<?xml version="1.0" standalone="no"?>
<!DOCTYPE svg PUBLIC "-//W3C//DTD SVG 20010904//EN"
 "http://www.w3.org/TR/2001/REC-SVG-20010904/DTD/svg10.dtd">
<svg version="1.0" xmlns="http://www.w3.org/2000/svg"
 width="1024.000000pt" height="1024.000000pt" viewBox="0 0 1024.000000 1024.000000"
 preserveAspectRatio="xMidYMid meet">

<g transform="translate(0.000000,1024.000000) scale(0.100000,-0.100000)"
fill="#000000" stroke="none">
<path d="M0 5120 l0 -5120 5120 0 5120 0 0 5120 0 5120 -5120 0 -5120 0 0
-5120z m4175 4000 c-3 -5 -10 -10 -16 -10 -5 0 -9 5 -9 10 0 6 7 10 16 10 8 0
12 -4 9 -10z m-705 -140 c0 -5 -4 -10 -10 -10 -5 0 -10 5 -10 10 0 6 5 10 10
10 6 0 10 -4 10 -10z m3570 -114 c0 -8 -4 -17 -9 -21 -12 -7 -24 12 -16 25 9
15 25 12 25 -4z m-3924 -377 c10 -17 -13 -36 -27 -22 -12 12 -4 33 11 33 5 0
12 -5 16 -11z m-692 -125 c12 -121 44 -163 126 -165 l45 -1 -53 -8 c-33 -5
-63 -16 -77 -30 -26 -25 -44 -86 -46 -157 -1 -45 -2 -43 -14 28 -22 128 -49
157 -149 160 -33 1 -29 3 22 9 96 11 122 48 122 178 0 81 15 72 24 -14z m1346
6 c0 -5 -2 -10 -4 -10 -3 0 -8 5 -11 10 -3 6 -1 10 4 10 6 0 11 -4 11 -10z
m1487 -126 c9 -23 -13 -40 -32 -24 -12 10 -13 16 -4 26 15 18 28 18 36 -2z
m-289 -342 c2 -7 -3 -12 -12 -12 -9 0 -16 7 -16 16 0 17 22 14 28 -4z m2804
-74 c-7 -7 -12 -8 -12 -2 0 14 12 26 19 19 2 -3 -1 -11 -7 -17z m-1180 -347
c31 -12 71 -32 89 -44 54 -36 125 -133 155 -211 26 -68 27 -82 35 -331 8 -270
3 -2372 -7 -2530 -12 -206 -120 -392 -293 -503 -98 -64 -177 -87 -296 -87
-114 1 -176 17 -267 72 -87 52 -106 71 -527 557 -63 72 -185 212 -271 311
-183 210 -376 434 -445 520 -102 126 -189 226 -212 240 -21 14 -24 14 -30 -1
-3 -9 -3 -337 0 -728 7 -782 7 -786 -52 -913 -37 -77 -128 -176 -193 -209
-239 -121 -497 -31 -617 216 l-36 75 -1 1275 c-1 701 2 1319 6 1373 6 89 11
107 50 182 84 166 196 255 351 277 139 19 265 -7 378 -79 67 -42 172 -148 280
-282 86 -106 215 -257 455 -531 213 -242 312 -357 420 -485 132 -156 301 -328
317 -323 12 4 14 126 16 704 2 979 6 1114 30 1190 46 142 146 229 316 275 100
26 268 22 349 -10z m2098 -116 c0 -8 -7 -15 -15 -15 -8 0 -15 7 -15 15 0 8 7
15 15 15 8 0 15 -7 15 -15z m-4044 -76 c10 -17 -13 -36 -27 -22 -12 12 -4 33
11 33 5 0 12 -5 16 -11z m904 1 c0 -5 -7 -10 -15 -10 -8 0 -15 5 -15 10 0 6 7
10 15 10 8 0 15 -4 15 -10z m-4155 -291 c10 -15 -1 -23 -20 -15 -9 3 -13 10
-10 16 8 13 22 13 30 -1z m5925 -489 c0 -5 -4 -10 -10 -10 -5 0 -10 5 -10 10
0 6 5 10 10 10 6 0 10 -4 10 -10z m-1756 -71 c-3 -5 -10 -7 -15 -3 -5 3 -7 10
-3 15 3 5 10 7 15 3 5 -3 7 -10 3 -15z m-2324 -32 c0 -8 -3 -17 -7 -20 -9 -9
-34 13 -27 24 8 14 34 11 34 -4z m5580 -432 c13 -16 6 -35 -15 -35 -18 0 -28
17 -21 35 7 19 20 19 36 0z m-7480 -25 c0 -5 -5 -10 -11 -10 -5 0 -7 5 -4 10
3 6 8 10 11 10 2 0 4 -4 4 -10z m280 -230 c0 -5 -4 -10 -10 -10 -5 0 -10 5
-10 10 0 6 5 10 10 10 6 0 10 -4 10 -10z m5648 -899 c3 -8 -1 -12 -9 -9 -7 2
-15 10 -17 17 -3 8 1 12 9 9 7 -2 15 -10 17 -17z m-6028 -156 c0 -8 -4 -15
-10 -15 -5 0 -10 7 -10 15 0 8 5 15 10 15 6 0 10 -7 10 -15z m1850 -86 c0 -5
-4 -9 -10 -9 -5 0 -10 7 -10 16 0 8 5 12 10 9 6 -3 10 -10 10 -16z m-1690
-504 c0 -8 -4 -15 -10 -15 -5 0 -10 7 -10 15 0 8 5 15 10 15 6 0 10 -7 10 -15z
m7300 -105 c0 -5 -4 -10 -10 -10 -5 0 -10 5 -10 10 0 6 5 10 10 10 6 0 10 -4
10 -10z m-487 -523 c10 -16 31 -30 47 -34 33 -6 41 -23 11 -23 -11 0 -32 -10
-46 -23 -23 -19 -29 -36 -39 -112 l-12 -90 -8 83 c-9 103 -34 139 -99 144 -38
3 -40 4 -14 11 15 4 39 9 53 12 34 7 52 54 61 152 l7 78 10 -85 c7 -50 19 -97
29 -113z m454 -409 c-3 -8 -6 -5 -6 6 -1 11 2 17 5 13 3 -3 4 -12 1 -19z
m-6302 -18 c3 -5 1 -10 -4 -10 -6 0 -11 5 -11 10 0 6 2 10 4 10 3 0 8 -4 11
-10z m5095 0 c0 -5 -4 -10 -10 -10 -5 0 -10 5 -10 10 0 6 5 10 10 10 6 0 10
-4 10 -10z m-43 -474 c70 -32 157 -115 192 -184 12 -23 28 -70 36 -104 54
-228 -44 -458 -233 -546 -51 -24 -68 -27 -167 -27 -97 0 -116 3 -165 26 -155
73 -243 225 -244 419 0 205 109 374 279 430 89 30 219 24 302 -14z m837 1 c69
-32 111 -70 146 -131 43 -75 41 -80 -37 -95 -61 -11 -69 -11 -78 4 -42 70
-100 104 -178 105 -86 0 -140 -35 -140 -92 0 -48 34 -69 197 -124 167 -56 228
-94 264 -164 83 -166 -59 -348 -289 -367 -120 -10 -269 52 -324 136 -35 53
-45 117 -19 124 83 23 128 31 131 22 14 -40 54 -91 83 -107 50 -27 186 -22
227 8 56 42 56 110 1 144 -18 10 -89 38 -160 60 -142 46 -208 84 -252 147 -25
37 -30 52 -30 105 1 123 79 214 211 248 62 15 188 4 247 -23z m-6118 -94 c31
-60 75 -139 98 -178 22 -38 71 -128 108 -200 l67 -130 1 308 0 308 83 -3 82
-3 0 -430 0 -430 -102 -3 -102 -3 -75 148 c-78 154 -238 439 -256 457 -7 7
-10 -87 -10 -297 l0 -308 -82 3 -83 3 -3 433 -2 432 109 0 109 0 58 -107z
m1214 27 l0 -80 -200 0 -200 0 0 -90 0 -90 195 0 195 0 0 -80 0 -80 -195 0
-195 0 0 -105 0 -105 200 0 200 0 0 -75 0 -75 -285 0 -285 0 0 423 c0 233 3
427 7 430 3 4 132 7 285 7 l278 0 0 -80z m615 68 c108 -17 180 -87 192 -185
10 -85 -35 -170 -111 -210 l-31 -17 38 -11 c88 -25 137 -94 137 -192 -1 -100
-48 -171 -141 -212 -41 -18 -68 -20 -280 -21 l-234 -1 -3 418 c-1 230 0 424 3
431 6 16 334 16 430 0z m565 -290 c0 -279 2 -306 20 -346 27 -59 87 -87 176
-79 71 5 113 27 140 71 17 28 19 60 24 341 l5 310 80 0 80 0 0 -335 c0 -326
-1 -336 -22 -376 -30 -57 -99 -115 -164 -139 -42 -16 -78 -20 -164 -20 -134 1
-204 24 -271 90 -70 70 -74 97 -74 467 l0 318 85 0 85 0 0 -302z m905 -53 l0
-350 188 -3 187 -2 0 -75 0 -75 -275 0 -275 0 0 423 c0 233 3 427 7 431 4 4
43 5 88 4 l80 -3 0 -350z m1048 318 c8 -21 28 -81 45 -133 17 -52 76 -225 131
-385 56 -159 101 -295 101 -303 0 -10 -21 -12 -92 -10 l-91 3 -30 88 -29 87
-176 -2 -175 -3 -26 -85 -27 -85 -87 -2 c-48 -1 -89 2 -92 6 -2 5 32 114 76
242 44 129 103 302 130 384 28 83 57 169 65 193 l16 42 123 0 123 0 15 -37z
m-1446 -1299 c-9 -9 -28 6 -21 18 4 6 10 6 17 -1 6 -6 8 -13 4 -17z"/>
<path d="M6280 7396 c-70 -15 -153 -60 -192 -105 -17 -19 -42 -60 -56 -91 -24
-51 -26 -71 -33 -255 -4 -110 -8 -550 -8 -977 l-1 -778 -24 -15 c-16 -10 -33
-14 -51 -9 -31 8 -134 112 -321 325 -71 81 -230 258 -354 393 -219 241 -274
303 -539 605 -312 357 -328 372 -431 412 -79 30 -144 34 -220 15 -118 -30
-231 -124 -284 -236 l-30 -65 -8 -250 c-4 -137 -9 -740 -10 -1340 l-3 -1090
31 -65 c64 -136 170 -204 316 -203 63 0 88 6 131 26 107 53 178 135 219 255
l22 67 -3 793 c-3 904 -9 846 77 840 l46 -3 124 -150 c68 -82 151 -184 185
-226 34 -42 251 -295 482 -563 231 -268 437 -509 458 -534 76 -92 209 -220
257 -246 77 -42 178 -59 264 -46 211 33 401 219 434 425 6 36 9 603 8 1440
l-1 1380 -26 55 c-82 174 -262 259 -459 216z m117 -1363 c-1 -158 -2 -31 -2
282 0 314 1 443 2 288 2 -155 2 -411 0 -570z m-2001 245 l29 -33 -32 29 c-31
28 -38 36 -30 36 2 0 16 -15 33 -32z m-318 -395 c-1 -235 -4 -302 -8 -208 -6
154 -2 555 5 555 3 0 4 -156 3 -347z m-118 267 c0 -5 -4 -10 -10 -10 -5 0 -10
5 -10 10 0 6 5 10 10 10 6 0 10 -4 10 -10z m2626 -11 c3 -6 1 -16 -5 -22 -9
-9 -14 -8 -21 3 -9 15 -4 30 10 30 5 0 12 -5 16 -11z m-159 -1457 c-1 -97 -2
-17 -2 178 0 195 1 275 2 177 2 -97 2 -257 0 -355z m-2507 273 c0 -8 -7 -15
-15 -15 -8 0 -15 7 -15 15 0 8 7 15 15 15 8 0 15 -7 15 -15z m2049 -411 c58
-65 112 -128 120 -140 25 -32 -35 32 -159 171 -63 71 -166 183 -227 249 -62
67 -113 124 -113 128 0 10 243 -252 379 -408z"/>
<path d="M7160 2404 c-46 -20 -96 -69 -123 -119 -29 -56 -36 -209 -13 -289 24
-80 83 -139 156 -155 160 -34 286 78 298 265 9 139 -38 242 -130 288 -60 30
-133 34 -188 10z"/>
<path d="M3710 2304 l0 -106 113 4 c75 2 119 8 135 18 33 21 48 78 32 124 -19
58 -39 66 -167 66 l-113 0 0 -106z"/>
<path d="M3707 1993 c-4 -38 -7 -87 -7 -110 l0 -43 120 0 c131 0 164 9 186 51
29 57 7 141 -42 159 -14 6 -76 10 -138 10 l-113 0 -6 -67z"/>
<path d="M6281 2216 c-34 -103 -61 -189 -58 -192 2 -3 58 -3 124 -2 l121 3
-62 190 -61 189 -64 -188z"/>
</g>
</svg>
